<svg width="74" height="74" viewBox="0 0 74 74" fill="none" xmlns="http://www.w3.org/2000/svg">
<g filter="url(#filter0_d)">
<rect x="1" y="3" width="64" height="64" rx="10" fill="#C2F5FF"/>
</g>
<path d="M24.4746 34.291C24.4746 31.2441 24.7852 28.7949 25.4062 26.9434C26.0391 25.0801 26.9707 23.6445 28.2012 22.6367C29.4434 21.6289 31.002 21.125 32.877 21.125C34.2598 21.125 35.4727 21.4062 36.5156 21.9688C37.5586 22.5195 38.4199 23.3223 39.0996 24.377C39.7793 25.4199 40.3125 26.6973 40.6992 28.209C41.0859 29.709 41.2793 31.7363 41.2793 34.291C41.2793 37.3145 40.9688 39.7578 40.3477 41.6211C39.7266 43.4727 38.7949 44.9082 37.5527 45.9277C36.3223 46.9355 34.7637 47.4395 32.877 47.4395C30.3926 47.4395 28.4414 46.5488 27.0234 44.7676C25.3242 42.623 24.4746 39.1309 24.4746 34.291ZM27.7266 34.291C27.7266 38.5215 28.2188 41.3398 29.2031 42.7461C30.1992 44.1406 31.4238 44.8379 32.877 44.8379C34.3301 44.8379 35.5488 44.1348 36.5332 42.7285C37.5293 41.3223 38.0273 38.5098 38.0273 34.291C38.0273 30.0488 37.5293 27.2305 36.5332 25.8359C35.5488 24.4414 34.3184 23.7441 32.8418 23.7441C31.3887 23.7441 30.2285 24.3594 29.3613 25.5898C28.2715 27.1602 27.7266 30.0605 27.7266 34.291Z" fill="#1D1050"/>
<defs>
<filter id="filter0_d" x="0" y="0" width="74" height="74" filterUnits="userSpaceOnUse" color-interpolation-filters="sRGB">
<feFlood flood-opacity="0" result="BackgroundImageFix"/>
<feColorMatrix in="SourceAlpha" type="matrix" values="0 0 0 0 0 0 0 0 0 0 0 0 0 0 0 0 0 0 127 0"/>
<feOffset dx="4" dy="2"/>
<feGaussianBlur stdDeviation="2.5"/>
<feColorMatrix type="matrix" values="0 0 0 0 0.216753 0 0 0 0 0.227041 0 0 0 0 0.229167 0 0 0 1 0"/>
<feBlend mode="normal" in2="BackgroundImageFix" result="effect1_dropShadow"/>
<feBlend mode="normal" in="SourceGraphic" in2="effect1_dropShadow" result="shape"/>
</filter>
</defs>
</svg>
