<svg width="74" height="74" viewBox="0 0 74 74" fill="none" xmlns="http://www.w3.org/2000/svg">
<g filter="url(#filter0_d)">
<rect x="1" y="3" width="64" height="64" rx="10" fill="#C2F5FF"/>
</g>
<path d="M24.4922 41.1973L27.6562 40.7754C28.0195 42.5684 28.6348 43.8633 29.502 44.6602C30.3809 45.4453 31.4473 45.8379 32.7012 45.8379C34.1895 45.8379 35.4434 45.3223 36.4629 44.291C37.4941 43.2598 38.0098 41.9824 38.0098 40.459C38.0098 39.0059 37.5352 37.8105 36.5859 36.873C35.6367 35.9238 34.4297 35.4492 32.9648 35.4492C32.3672 35.4492 31.623 35.5664 30.7324 35.8008L31.084 33.0234C31.2949 33.0469 31.4648 33.0586 31.5938 33.0586C32.9414 33.0586 34.1543 32.707 35.2324 32.0039C36.3105 31.3008 36.8496 30.2168 36.8496 28.752C36.8496 27.5918 36.457 26.6309 35.6719 25.8691C34.8867 25.1074 33.873 24.7266 32.6309 24.7266C31.4004 24.7266 30.375 25.1133 29.5547 25.8867C28.7344 26.6602 28.207 27.8203 27.9727 29.3672L24.8086 28.8047C25.1953 26.6836 26.0742 25.043 27.4453 23.8828C28.8164 22.7109 30.5215 22.125 32.5605 22.125C33.9668 22.125 35.2617 22.4297 36.4453 23.0391C37.6289 23.6367 38.5312 24.457 39.1523 25.5C39.7852 26.543 40.1016 27.6504 40.1016 28.8223C40.1016 29.9355 39.8027 30.9492 39.2051 31.8633C38.6074 32.7773 37.7227 33.5039 36.5508 34.043C38.0742 34.3945 39.2578 35.127 40.1016 36.2402C40.9453 37.3418 41.3672 38.7246 41.3672 40.3887C41.3672 42.6387 40.5469 44.5488 38.9062 46.1191C37.2656 47.6777 35.1914 48.457 32.6836 48.457C30.4219 48.457 28.541 47.7832 27.041 46.4355C25.5527 45.0879 24.7031 43.3418 24.4922 41.1973Z" fill="#1D1050"/>
<defs>
<filter id="filter0_d" x="0" y="0" width="74" height="74" filterUnits="userSpaceOnUse" color-interpolation-filters="sRGB">
<feFlood flood-opacity="0" result="BackgroundImageFix"/>
<feColorMatrix in="SourceAlpha" type="matrix" values="0 0 0 0 0 0 0 0 0 0 0 0 0 0 0 0 0 0 127 0"/>
<feOffset dx="4" dy="2"/>
<feGaussianBlur stdDeviation="2.5"/>
<feColorMatrix type="matrix" values="0 0 0 0 0.216753 0 0 0 0 0.227041 0 0 0 0 0.229167 0 0 0 1 0"/>
<feBlend mode="normal" in2="BackgroundImageFix" result="effect1_dropShadow"/>
<feBlend mode="normal" in="SourceGraphic" in2="effect1_dropShadow" result="shape"/>
</filter>
</defs>
</svg>
