<svg width="74" height="74" viewBox="0 0 74 74" fill="none" xmlns="http://www.w3.org/2000/svg">
<g filter="url(#filter0_d)">
<rect x="1" y="3" width="64" height="64" rx="10" fill="#C2F5FF"/>
</g>
<path d="M38.8926 27.541L35.7461 27.7871C35.4648 26.5449 35.0664 25.6426 34.5508 25.0801C33.6953 24.1777 32.6406 23.7266 31.3867 23.7266C30.3789 23.7266 29.4941 24.0078 28.7324 24.5703C27.7363 25.2969 26.9512 26.3574 26.377 27.752C25.8027 29.1465 25.5039 31.1328 25.4805 33.7109C26.2422 32.5508 27.1738 31.6895 28.2754 31.127C29.377 30.5645 30.5312 30.2832 31.7383 30.2832C33.8477 30.2832 35.6406 31.0625 37.1172 32.6211C38.6055 34.168 39.3496 36.1719 39.3496 38.6328C39.3496 40.25 38.998 41.7559 38.2949 43.1504C37.6035 44.5332 36.6484 45.5938 35.4297 46.332C34.2109 47.0703 32.8281 47.4395 31.2812 47.4395C28.6445 47.4395 26.4941 46.4727 24.8301 44.5391C23.166 42.5938 22.334 39.3945 22.334 34.9414C22.334 29.9609 23.2539 26.3398 25.0938 24.0781C26.6992 22.1094 28.8613 21.125 31.5801 21.125C33.6074 21.125 35.2656 21.6934 36.5547 22.8301C37.8555 23.9668 38.6348 25.5371 38.8926 27.541ZM25.9727 38.6504C25.9727 39.7402 26.2012 40.7832 26.6582 41.7793C27.127 42.7754 27.7773 43.5371 28.6094 44.0645C29.4414 44.5801 30.3145 44.8379 31.2285 44.8379C32.5645 44.8379 33.7129 44.2988 34.6738 43.2207C35.6348 42.1426 36.1152 40.6777 36.1152 38.8262C36.1152 37.0449 35.6406 35.6445 34.6914 34.625C33.7422 33.5938 32.5469 33.0781 31.1055 33.0781C29.6758 33.0781 28.4629 33.5938 27.4668 34.625C26.4707 35.6445 25.9727 36.9863 25.9727 38.6504Z" fill="#1D1050"/>
<defs>
<filter id="filter0_d" x="0" y="0" width="74" height="74" filterUnits="userSpaceOnUse" color-interpolation-filters="sRGB">
<feFlood flood-opacity="0" result="BackgroundImageFix"/>
<feColorMatrix in="SourceAlpha" type="matrix" values="0 0 0 0 0 0 0 0 0 0 0 0 0 0 0 0 0 0 127 0"/>
<feOffset dx="4" dy="2"/>
<feGaussianBlur stdDeviation="2.5"/>
<feColorMatrix type="matrix" values="0 0 0 0 0.216753 0 0 0 0 0.227041 0 0 0 0 0.229167 0 0 0 1 0"/>
<feBlend mode="normal" in2="BackgroundImageFix" result="effect1_dropShadow"/>
<feBlend mode="normal" in="SourceGraphic" in2="effect1_dropShadow" result="shape"/>
</filter>
</defs>
</svg>
