<svg width="74" height="74" viewBox="0 0 74 74" fill="none" xmlns="http://www.w3.org/2000/svg">
<g filter="url(#filter0_d)">
<rect x="1" y="3" width="64" height="64" rx="10" fill="#C2F5FF"/>
</g>
<path d="M29.3438 33.0254C28.0312 32.5449 27.0586 31.8594 26.4258 30.9688C25.793 30.0781 25.4766 29.0117 25.4766 27.7695C25.4766 25.8945 26.1504 24.3184 27.498 23.041C28.8457 21.7637 30.6387 21.125 32.877 21.125C35.127 21.125 36.9375 21.7812 38.3086 23.0938C39.6797 24.3945 40.3652 25.9824 40.3652 27.8574C40.3652 29.0527 40.0488 30.0957 39.416 30.9863C38.7949 31.8652 37.8457 32.5449 36.5684 33.0254C38.1504 33.541 39.3516 34.373 40.1719 35.5215C41.0039 36.6699 41.4199 38.041 41.4199 39.6348C41.4199 41.8379 40.6406 43.6895 39.082 45.1895C37.5234 46.6895 35.4727 47.4395 32.9297 47.4395C30.3867 47.4395 28.3359 46.6895 26.7773 45.1895C25.2188 43.6777 24.4395 41.7969 24.4395 39.5469C24.4395 37.8711 24.8613 36.4707 25.7051 35.3457C26.5605 34.209 27.7734 33.4355 29.3438 33.0254ZM28.7109 27.6641C28.7109 28.8828 29.1035 29.8789 29.8887 30.6523C30.6738 31.4258 31.6934 31.8125 32.9473 31.8125C34.166 31.8125 35.1621 31.4316 35.9355 30.6699C36.7207 29.8965 37.1133 28.9531 37.1133 27.8398C37.1133 26.6797 36.709 25.707 35.9004 24.9219C35.1035 24.125 34.1074 23.7266 32.9121 23.7266C31.7051 23.7266 30.7031 24.1133 29.9062 24.8867C29.1094 25.6602 28.7109 26.5859 28.7109 27.6641ZM27.6914 39.5645C27.6914 40.4668 27.9023 41.3398 28.3242 42.1836C28.7578 43.0273 29.3965 43.6836 30.2402 44.1523C31.084 44.6094 31.9922 44.8379 32.9648 44.8379C34.4766 44.8379 35.7246 44.3516 36.709 43.3789C37.6934 42.4062 38.1855 41.1699 38.1855 39.6699C38.1855 38.1465 37.6758 36.8867 36.6562 35.8906C35.6484 34.8945 34.3828 34.3965 32.8594 34.3965C31.3711 34.3965 30.1348 34.8887 29.1504 35.873C28.1777 36.8574 27.6914 38.0879 27.6914 39.5645Z" fill="#1D1050"/>
<defs>
<filter id="filter0_d" x="0" y="0" width="74" height="74" filterUnits="userSpaceOnUse" color-interpolation-filters="sRGB">
<feFlood flood-opacity="0" result="BackgroundImageFix"/>
<feColorMatrix in="SourceAlpha" type="matrix" values="0 0 0 0 0 0 0 0 0 0 0 0 0 0 0 0 0 0 127 0"/>
<feOffset dx="4" dy="2"/>
<feGaussianBlur stdDeviation="2.5"/>
<feColorMatrix type="matrix" values="0 0 0 0 0.216753 0 0 0 0 0.227041 0 0 0 0 0.229167 0 0 0 1 0"/>
<feBlend mode="normal" in2="BackgroundImageFix" result="effect1_dropShadow"/>
<feBlend mode="normal" in="SourceGraphic" in2="effect1_dropShadow" result="shape"/>
</filter>
</defs>
</svg>
