<svg width="74" height="74" viewBox="0 0 74 74" fill="none" xmlns="http://www.w3.org/2000/svg">
<g filter="url(#filter0_d)">
<rect x="1" y="3" width="64" height="64" rx="10" fill="#C2F5FF"/>
</g>
<path d="M22.9492 41.041L25.9902 40.7598C26.248 42.1895 26.7402 43.2266 27.4668 43.8711C28.1934 44.5156 29.125 44.8379 30.2617 44.8379C31.2344 44.8379 32.084 44.6152 32.8105 44.1699C33.5488 43.7246 34.1523 43.1328 34.6211 42.3945C35.0898 41.6445 35.4824 40.6367 35.7988 39.3711C36.1152 38.1055 36.2734 36.8164 36.2734 35.5039C36.2734 35.3633 36.2676 35.1523 36.2559 34.8711C35.623 35.8789 34.7559 36.6992 33.6543 37.332C32.5645 37.9531 31.3809 38.2637 30.1035 38.2637C27.9707 38.2637 26.166 37.4902 24.6895 35.9434C23.2129 34.3965 22.4746 32.3574 22.4746 29.8262C22.4746 27.2129 23.2422 25.1094 24.7773 23.5156C26.3242 21.9219 28.2578 21.125 30.5781 21.125C32.2539 21.125 33.7832 21.5762 35.166 22.4785C36.5605 23.3809 37.6152 24.6699 38.3301 26.3457C39.0566 28.0098 39.4199 30.4238 39.4199 33.5879C39.4199 36.8809 39.0625 39.5059 38.3477 41.4629C37.6328 43.4082 36.5664 44.8906 35.1484 45.9102C33.7422 46.9297 32.0898 47.4395 30.1914 47.4395C28.1758 47.4395 26.5293 46.8828 25.252 45.7695C23.9746 44.6445 23.207 43.0684 22.9492 41.041ZM35.9043 29.668C35.9043 27.8516 35.418 26.4102 34.4453 25.3438C33.4844 24.2773 32.3242 23.7441 30.9648 23.7441C29.5586 23.7441 28.334 24.3184 27.291 25.4668C26.248 26.6152 25.7266 28.1035 25.7266 29.9316C25.7266 31.5723 26.2188 32.9082 27.2031 33.9395C28.1992 34.959 29.4238 35.4688 30.877 35.4688C32.3418 35.4688 33.543 34.959 34.4805 33.9395C35.4297 32.9082 35.9043 31.4844 35.9043 29.668Z" fill="#1D1050"/>
<defs>
<filter id="filter0_d" x="0" y="0" width="74" height="74" filterUnits="userSpaceOnUse" color-interpolation-filters="sRGB">
<feFlood flood-opacity="0" result="BackgroundImageFix"/>
<feColorMatrix in="SourceAlpha" type="matrix" values="0 0 0 0 0 0 0 0 0 0 0 0 0 0 0 0 0 0 127 0"/>
<feOffset dx="4" dy="2"/>
<feGaussianBlur stdDeviation="2.5"/>
<feColorMatrix type="matrix" values="0 0 0 0 0.216753 0 0 0 0 0.227041 0 0 0 0 0.229167 0 0 0 1 0"/>
<feBlend mode="normal" in2="BackgroundImageFix" result="effect1_dropShadow"/>
<feBlend mode="normal" in="SourceGraphic" in2="effect1_dropShadow" result="shape"/>
</filter>
</defs>
</svg>
