<svg width="74" height="74" viewBox="0 0 74 74" fill="none" xmlns="http://www.w3.org/2000/svg">
<g filter="url(#filter0_d)">
<rect x="1" y="3" width="64" height="64" rx="10" fill="#C2F5FF"/>
</g>
<path d="M39.1562 37.9648L42.5664 38.8262C41.8516 41.627 40.5625 43.7656 38.6992 45.2422C36.8477 46.707 34.5801 47.4395 31.8965 47.4395C29.1191 47.4395 26.8574 46.877 25.1113 45.752C23.377 44.6152 22.0527 42.9746 21.1387 40.8301C20.2363 38.6855 19.7852 36.3828 19.7852 33.9219C19.7852 31.2383 20.2949 28.9004 21.3145 26.9082C22.3457 24.9043 23.8047 23.3867 25.6914 22.3555C27.5898 21.3125 29.6758 20.791 31.9492 20.791C34.5273 20.791 36.6953 21.4473 38.4531 22.7598C40.2109 24.0723 41.4355 25.918 42.127 28.2969L38.7695 29.0879C38.1719 27.2129 37.3047 25.8477 36.168 24.9922C35.0312 24.1367 33.6016 23.709 31.8789 23.709C29.8984 23.709 28.2402 24.1836 26.9043 25.1328C25.5801 26.082 24.6484 27.3594 24.1094 28.9648C23.5703 30.5586 23.3008 32.2051 23.3008 33.9043C23.3008 36.0957 23.6172 38.0117 24.25 39.6523C24.8945 41.2812 25.8906 42.5 27.2383 43.3086C28.5859 44.1172 30.0449 44.5215 31.6152 44.5215C33.5254 44.5215 35.1426 43.9707 36.4668 42.8691C37.791 41.7676 38.6875 40.1328 39.1562 37.9648Z" fill="#1D1050"/>
<defs>
<filter id="filter0_d" x="0" y="0" width="74" height="74" filterUnits="userSpaceOnUse" color-interpolation-filters="sRGB">
<feFlood flood-opacity="0" result="BackgroundImageFix"/>
<feColorMatrix in="SourceAlpha" type="matrix" values="0 0 0 0 0 0 0 0 0 0 0 0 0 0 0 0 0 0 127 0"/>
<feOffset dx="4" dy="2"/>
<feGaussianBlur stdDeviation="2.5"/>
<feColorMatrix type="matrix" values="0 0 0 0 0.216753 0 0 0 0 0.227041 0 0 0 0 0.229167 0 0 0 1 0"/>
<feBlend mode="normal" in2="BackgroundImageFix" result="effect1_dropShadow"/>
<feBlend mode="normal" in="SourceGraphic" in2="effect1_dropShadow" result="shape"/>
</filter>
</defs>
</svg>
